<svg xmlns="http://www.w3.org/2000/svg" width="289" height="197" fill="none" viewBox="0 0 289 197"><path fill="url(#a)" fill-rule="evenodd" d="M246.779 130.804c24.166-10.679 52.573-29.784 71.485-44.503l37.147 45.339c-20.792 16.182-53.671 38.626-84.326 52.172-14.842 6.558-32.558 12.595-49.49 12.556-8.889-.021-19.231-1.716-28.838-7.444-10.051-5.993-16.893-14.979-20.633-25.351-9.488-26.315-7.376-62.379-3.328-92.009q.321-2.351.665-4.696C149.075 77.91 125.853 87.07 102.584 88.99c-27.268 2.25-55.345-5.645-75.314-31.008C8.885 34.632.52.27 0-43.76l59.936-1.306c.462 39.046 8.104 58.453 15.078 67.31 5.39 6.847 12.023 9.599 23.146 8.68 12.714-1.048 29.164-7.1 47.426-17.606 17.824-10.255 35.14-23.458 49.079-36.04 9.901-8.938 24.639-10.44 36.059-3.676s16.73 20.14 12.992 32.728c-4.96 16.702-11.7 44.444-15.503 72.286-3.414 24.992-3.811 45.824-1.179 58.936 4.449-.871 11.013-2.89 19.745-6.748m-25.001 7.261" clip-rule="evenodd"/><defs><linearGradient id="a" x1="247.196" x2="286.217" y1="-90.035" y2="179.201" gradientUnits="userSpaceOnUse"><stop stop-color="#fbe8ff"/><stop offset=".57" stop-color="#eee7ff"/><stop offset="1" stop-color="#d1e3ff"/></linearGradient></defs></svg>