<svg xmlns="http://www.w3.org/2000/svg">
  <symbol id="burger" viewBox="0 0 30 25">
    <path fill="currentColor" d="M0 0h30v3H0zM0 11h30v3H0zM0 22h30v3H0z"/>
  </symbol>
  <symbol id="cart" viewBox="0 0 30 30">
    <path fill="currentColor" d="M9.75 22.5A2.497 2.497 0 0 0 7.263 25c0 1.375 1.112 2.5 2.487 2.5s2.5-1.125 2.5-2.5-1.125-2.5-2.5-2.5m-7.5-20V5h2.5l4.5 9.488-1.687 3.062c-.2.35-.313.762-.313 1.2 0 1.375 1.125 2.5 2.5 2.5h15v-2.5H10.275a.31.31 0 0 1-.312-.312l.037-.15 1.125-2.038h9.313c.937 0 1.762-.512 2.187-1.287L27.1 6.85A1.254 1.254 0 0 0 26 5H7.513L6.337 2.5zm20 20a2.497 2.497 0 0 0-2.488 2.5c0 1.375 1.113 2.5 2.488 2.5s2.5-1.125 2.5-2.5-1.125-2.5-2.5-2.5"/>
  </symbol>
  <symbol id="instagram" viewBox="0 0 30 30">
    <path fill="currentColor" d="M15 11.331a3.67 3.67 0 0 0 0 7.34A3.677 3.677 0 0 0 18.672 15 3.674 3.674 0 0 0 15 11.331"/><path fill="currentColor" d="M20.536 5H9.464A4.47 4.47 0 0 0 5 9.464v11.072A4.47 4.47 0 0 0 9.464 25h11.072C23 25 25 23 25 20.536V9.464C25 7.004 23 5 20.536 5M15 21.48A6.49 6.49 0 0 1 8.52 15c0-3.572 2.908-6.476 6.48-6.476s6.48 2.904 6.48 6.476A6.49 6.49 0 0 1 15 21.48M21.616 9.7a1.37 1.37 0 0 1-1.372-1.368c0-.756.616-1.372 1.372-1.372s1.372.616 1.372 1.372A1.37 1.37 0 0 1 21.616 9.7"/>
  </symbol>
  <symbol id="telegram" viewBox="0 0 30 30">
    <path fill="currentColor" d="M18.643 11.723a94 94 0 0 0-1.463 1.033c-.908.653-1.822 1.339-2.755 1.97-.852.576-1.654 1.23-2.504 1.81-.917.624-2.047 1.282-3.178.935-1.6-.492-2.85-.698-4.023-1.178s-.754-1.31.126-1.746c.88-.437 10.603-4.802 10.603-4.802l6.077-2.62a307 307 0 0 0 1.58-.646c.355-.146.704-.31 1.077-.4.423-.1.927-.146 1.309.112.546.367.546 1.17.476 1.764-.135 1.16-.302 2.318-.468 3.474q-.33 2.294-.673 4.585-.306 2.034-.616 4.066c-.15.978-.22 1.987-.42 2.953-.09.438-.227.878-.466 1.253-1.003 1.573-2.881.17-3.909-.617-.847-.648-4.436-3.066-5.324-3.714-.318-.232-.566-.636-.563-1.046.005-.564.39-.991.763-1.352.46-.443.933-.87 1.39-1.317l2.051-2.016 1.762-1.73c.324-.319.632-.65.92-1.005.086-.107.146-.193.156-.333.006-.1-.013-.2-.086-.271-.27-.264-.604-.002-.846.16q-.501.336-.996.679z"/>
  </symbol>
  <symbol id="vkontakte" viewBox="0 0 30 30">
    <path fill="currentColor" d="M17.2 10.987v2.898c0 .198.01.395.09.579.114.26.29.345.556.27.22-.06.397-.199.57-.344.525-.446.947-.988 1.344-1.552 1.078-1.53 1.938-3.187 2.666-4.92.179-.426.43-.758.889-.868.149-.036.3-.048.454-.048l2.705.001q.17.001.34.025c.514.065.735.389.626.91-.113.537-.333 1.031-.577 1.515-.88 1.744-1.94 3.373-3.01 4.995-.151.227-.308.45-.437.692a.78.78 0 0 0 .03.836c.163.262.364.49.58.704A30 30 0 0 1 27 20.108c.294.396.568.806.783 1.255.085.178.155.36.192.555.11.576-.16.97-.722 1.046a3 3 0 0 1-.417.028c-.845.003-1.69-.015-2.533.007a1.81 1.81 0 0 1-1.464-.624c-.535-.588-1.06-1.187-1.595-1.775-.655-.718-1.347-1.395-2.145-1.944-.367-.252-.75-.47-1.213-.46-.47.009-.65.189-.676.68a9 9 0 0 0-.01.493c-.001.815.001 1.63-.002 2.445-.002.667-.215.95-.852 1.071-1.14.218-2.265.104-3.371-.218-1.918-.557-3.518-1.66-4.915-3.105-.958-.992-1.72-2.139-2.458-3.305-1.243-1.968-2.316-4.027-3.08-6.247-.21-.606-.39-1.22-.494-1.858-.127-.783.154-1.14.937-1.147.952-.01 1.905-.003 2.857-.001.082 0 .164.013.246.021.334.035.58.21.754.503.15.255.236.536.333.814.734 2.115 1.65 4.137 2.887 5.992.34.509.706.997 1.173 1.392.143.121.294.23.48.27.281.062.476-.054.553-.339.068-.256.072-.52.073-.782.003-1.413.011-2.827-.002-4.24-.008-.801-.22-1.542-.73-2.169a3 3 0 0 1-.292-.413c-.248-.437-.03-.93.45-1.025q.14-.026.284-.024h4.247q.105-.002.21.007c.417.044.627.252.679.685q.03.265.03.531.003 1.38.002 2.76"/>
  </symbol>
  <symbol id="whatsapp" viewBox="0 0 30 30">
    <path fill="currentColor" d="M15.003 5h-.005C9.484 5 5 9.485 5 15c0 2.188.705 4.215 1.904 5.861l-1.247 3.715 3.844-1.229A9.9 9.9 0 0 0 15.003 25C20.516 25 25 20.514 25 15S20.516 5 15.003 5m5.818 14.121c-.241.681-1.199 1.247-1.962 1.412-.523.11-1.205.2-3.503-.753-2.938-1.218-4.831-4.204-4.978-4.398-.142-.193-1.188-1.58-1.188-3.016s.729-2.133 1.023-2.434c.24-.246.64-.358 1.022-.358q.185.002.335.011c.294.012.441.03.635.494.241.581.829 2.016.899 2.163.071.148.142.348.042.542-.094.2-.176.288-.324.458-.147.17-.287.3-.434.483-.136.159-.288.329-.118.623.17.287.758 1.246 1.623 2.016 1.116.994 2.02 1.311 2.345 1.446.24.1.528.076.704-.111.224-.242.5-.642.782-1.035.2-.283.452-.318.717-.218.27.094 1.699.8 1.993.946.293.148.487.218.558.342.07.123.07.705-.17 1.387"/>
  </symbol>
</svg>
