<svg xmlns="http://www.w3.org/2000/svg">
  <symbol id="burger" viewBox="0 0 30 25">
    <path fill="currentColor" d="M0 0h30v3H0zM0 11h30v3H0zM0 22h30v3H0z"/>
  </symbol>
  <symbol id="cart" viewBox="0 0 30 30">
    <path fill="currentColor" d="M9.75 22.5A2.497 2.497 0 0 0 7.263 25c0 1.375 1.112 2.5 2.487 2.5s2.5-1.125 2.5-2.5-1.125-2.5-2.5-2.5m-7.5-20V5h2.5l4.5 9.488-1.687 3.062c-.2.35-.313.762-.313 1.2 0 1.375 1.125 2.5 2.5 2.5h15v-2.5H10.275a.31.31 0 0 1-.312-.312l.037-.15 1.125-2.038h9.313c.937 0 1.762-.512 2.187-1.287L27.1 6.85A1.254 1.254 0 0 0 26 5H7.513L6.337 2.5zm20 20a2.497 2.497 0 0 0-2.488 2.5c0 1.375 1.113 2.5 2.488 2.5s2.5-1.125 2.5-2.5-1.125-2.5-2.5-2.5"/>
  </symbol>
  <symbol id="instagram" viewBox="0 0 30 30">
    <path fill="currentColor" d="M15 11.331a3.67 3.67 0 0 0 0 7.34A3.677 3.677 0 0 0 18.672 15 3.674 3.674 0 0 0 15 11.331"/><path fill="currentColor" d="M20.536 5H9.464A4.47 4.47 0 0 0 5 9.464v11.072A4.47 4.47 0 0 0 9.464 25h11.072C23 25 25 23 25 20.536V9.464C25 7.004 23 5 20.536 5M15 21.48A6.49 6.49 0 0 1 8.52 15c0-3.572 2.908-6.476 6.48-6.476s6.48 2.904 6.48 6.476A6.49 6.49 0 0 1 15 21.48M21.616 9.7a1.37 1.37 0 0 1-1.372-1.368c0-.756.616-1.372 1.372-1.372s1.372.616 1.372 1.372A1.37 1.37 0 0 1 21.616 9.7"/>
  </symbol>
  <symbol id="telegram" viewBox="0 0 30 30">
    <path fill="currentColor" d="M18.643 11.723a94 94 0 0 0-1.463 1.033c-.908.653-1.822 1.339-2.755 1.97-.852.576-1.654 1.23-2.504 1.81-.917.624-2.047 1.282-3.178.935-1.6-.492-2.85-.698-4.023-1.178s-.754-1.31.126-1.746c.88-.437 10.603-4.802 10.603-4.802l6.077-2.62a307 307 0 0 0 1.58-.646c.355-.146.704-.31 1.077-.4.423-.1.927-.146 1.309.112.546.367.546 1.17.476 1.764-.135 1.16-.302 2.318-.468 3.474q-.33 2.294-.673 4.585-.306 2.034-.616 4.066c-.15.978-.22 1.987-.42 2.953-.09.438-.227.878-.466 1.253-1.003 1.573-2.881.17-3.909-.617-.847-.648-4.436-3.066-5.324-3.714-.318-.232-.566-.636-.563-1.046.005-.564.39-.991.763-1.352.46-.443.933-.87 1.39-1.317l2.051-2.016 1.762-1.73c.324-.319.632-.65.92-1.005.086-.107.146-.193.156-.333.006-.1-.013-.2-.086-.271-.27-.264-.604-.002-.846.16q-.501.336-.996.679z"/>
  </symbol>
  <symbol id="vkontakte" viewBox="0 0 30 30">
    <path fill="currentColor" d="M17.2 10.987v2.898c0 .198.01.395.09.579.114.26.29.345.556.27.22-.06.397-.199.57-.344.525-.446.947-.988 1.344-1.552 1.078-1.53 1.938-3.187 2.666-4.92.179-.426.43-.758.889-.868.149-.036.3-.048.454-.048l2.705.001q.17.001.34.025c.514.065.735.389.626.91-.113.537-.333 1.031-.577 1.515-.88 1.744-1.94 3.373-3.01 4.995-.151.227-.308.45-.437.692a.78.78 0 0 0 .03.836c.163.262.364.49.58.704A30 30 0 0 1 27 20.108c.294.396.568.806.783 1.255.085.178.155.36.192.555.11.576-.16.97-.722 1.046a3 3 0 0 1-.417.028c-.845.003-1.69-.015-2.533.007a1.81 1.81 0 0 1-1.464-.624c-.535-.588-1.06-1.187-1.595-1.775-.655-.718-1.347-1.395-2.145-1.944-.367-.252-.75-.47-1.213-.46-.47.009-.65.189-.676.68a9 9 0 0 0-.01.493c-.001.815.001 1.63-.002 2.445-.002.667-.215.95-.852 1.071-1.14.218-2.265.104-3.371-.218-1.918-.557-3.518-1.66-4.915-3.105-.958-.992-1.72-2.139-2.458-3.305-1.243-1.968-2.316-4.027-3.08-6.247-.21-.606-.39-1.22-.494-1.858-.127-.783.154-1.14.937-1.147.952-.01 1.905-.003 2.857-.001.082 0 .164.013.246.021.334.035.58.21.754.503.15.255.236.536.333.814.734 2.115 1.65 4.137 2.887 5.992.34.509.706.997 1.173 1.392.143.121.294.23.48.27.281.062.476-.054.553-.339.068-.256.072-.52.073-.782.003-1.413.011-2.827-.002-4.24-.008-.801-.22-1.542-.73-2.169a3 3 0 0 1-.292-.413c-.248-.437-.03-.93.45-1.025q.14-.026.284-.024h4.247q.105-.002.21.007c.417.044.627.252.679.685q.03.265.03.531.003 1.38.002 2.76"/>
  </symbol>
  <symbol id="whatsapp" viewBox="0 0 30 30">
    <path fill="currentColor" d="M15.003 5h-.005C9.484 5 5 9.485 5 15c0 2.188.705 4.215 1.904 5.861l-1.247 3.715 3.844-1.229A9.9 9.9 0 0 0 15.003 25C20.516 25 25 20.514 25 15S20.516 5 15.003 5m5.818 14.121c-.241.681-1.199 1.247-1.962 1.412-.523.11-1.205.2-3.503-.753-2.938-1.218-4.831-4.204-4.978-4.398-.142-.193-1.188-1.58-1.188-3.016s.729-2.133 1.023-2.434c.24-.246.64-.358 1.022-.358q.185.002.335.011c.294.012.441.03.635.494.241.581.829 2.016.899 2.163.071.148.142.348.042.542-.094.2-.176.288-.324.458-.147.17-.287.3-.434.483-.136.159-.288.329-.118.623.17.287.758 1.246 1.623 2.016 1.116.994 2.02 1.311 2.345 1.446.24.1.528.076.704-.111.224-.242.5-.642.782-1.035.2-.283.452-.318.717-.218.27.094 1.699.8 1.993.946.293.148.487.218.558.342.07.123.07.705-.17 1.387"/>
  </symbol>
  <symbol id="wifi" viewBox="0 0 40 40">
    <path fill="currentColor" d="M8 18.263c.97.958.97 2.517 0 3.474l3.292 3.253a7.006 7.006 0 0 0 0-9.98zM17.87 8.505l-3.292 3.252c4.6 4.545 4.6 11.94 0 16.485l3.292 3.253c6.414-6.339 6.414-16.652 0-22.99"/><path fill="currentColor" d="m24.456 2-3.292 3.253c8.229 8.131 8.229 21.363 0 29.495L24.456 38a25.244 25.244 0 0 0 0-36"/>
  </symbol>
  <symbol id="wifi-gradient" viewBox="0 0 90 90">
    <path fill="url(#wifi-gradient-grad-1)" d="M21 41.46a4.91 4.91 0 0 1 0 6.935l6.492 6.493c5.492-5.492 5.492-14.428 0-19.92z"/><path fill="url(#wifi-gradient-grad-2)" d="m40.477 21.985-6.493 6.492c9.072 9.071 9.072 23.832 0 32.903l6.493 6.492c12.65-12.651 12.65-33.236 0-45.887"/><path fill="url(#wifi-gradient-grad-3)" d="m53.453 9-6.492 6.492c16.23 16.231 16.23 42.641 0 58.872l6.492 6.492c19.843-19.842 19.843-52.013 0-71.856"/><defs><linearGradient id="wifi-gradient-grad-1" x1="20.209" y1="12.191" x2="63.734" y2="65.201" gradientUnits="userSpaceOnUse"><stop stop-color="#fd00c5"/><stop offset="1" stop-color="#f8d6f0"/></linearGradient><linearGradient id="wifi-gradient-grad-2" x1="20.209" y1="12.191" x2="63.734" y2="65.201" gradientUnits="userSpaceOnUse"><stop stop-color="#fd00c5"/><stop offset="1" stop-color="#f8d6f0"/></linearGradient><linearGradient id="wifi-gradient-grad-3" x1="20.209" y1="12.191" x2="63.734" y2="65.201" gradientUnits="userSpaceOnUse"><stop stop-color="#fd00c5"/><stop offset="1" stop-color="#f8d6f0"/></linearGradient></defs>
  </symbol>
  <symbol id="stars" viewBox="0 0 40 40">
    <path fill="currentColor" d="M16.113 9.344c.055-.459.72-.459.774 0l.456 3.845a10.82 10.82 0 0 0 9.468 9.468l3.845.456c.459.055.459.72 0 .774l-3.845.456a10.82 10.82 0 0 0-9.468 9.468l-.456 3.845c-.055.459-.72.459-.774 0l-.456-3.845a10.82 10.82 0 0 0-9.468-9.468l-3.845-.456c-.459-.055-.459-.72 0-.774l3.845-.456a10.82 10.82 0 0 0 9.468-9.468zM30.813 2.166c.027-.221.348-.221.374 0l.22 1.856a5.22 5.22 0 0 0 4.57 4.571l1.857.22c.221.026.221.348 0 .374l-1.856.22a5.22 5.22 0 0 0-4.571 4.57l-.22 1.857c-.027.221-.348.221-.374 0l-.22-1.856a5.22 5.22 0 0 0-4.57-4.57l-1.857-.221c-.221-.026-.221-.348 0-.374l1.856-.22a5.22 5.22 0 0 0 4.571-4.57z"/>
  </symbol>
  <symbol id="stars-gradient" viewBox="0 0 90 90">
    <path fill="url(#stars-gradient-grad-1)" d="M35.034 18.85c.135-1.137 1.786-1.137 1.921 0l1.133 9.545C39.55 40.719 49.267 50.436 61.59 51.899l9.544 1.132c1.138.135 1.138 1.786 0 1.921l-9.544 1.133C49.267 57.547 39.55 67.264 38.087 79.588l-1.132 9.545c-.135 1.138-1.786 1.138-1.921 0L33.9 79.588c-1.462-12.324-11.179-22.04-23.503-23.503L.853 54.952c-1.137-.135-1.137-1.786 0-1.92l9.545-1.133c12.324-1.463 22.041-11.18 23.503-23.504z"/><path fill="url(#stars-gradient-grad-2)" d="M71.517.427c.068-.57.893-.57.96 0l.567 4.772A13.43 13.43 0 0 0 84.796 16.95l4.772.566c.569.067.569.893 0 .96l-4.772.567a13.43 13.43 0 0 0-11.752 11.752l-.566 4.772c-.068.569-.893.569-.961 0l-.566-4.772a13.43 13.43 0 0 0-11.752-11.752l-4.772-.567c-.57-.067-.57-.893 0-.96l4.772-.566A13.43 13.43 0 0 0 70.95 5.199z"/><defs><linearGradient id="stars-gradient-grad-1" x1="-1.203" y1="21.194" x2="36.003" y2="89.982" gradientUnits="userSpaceOnUse"><stop stop-color="#fd00c5"/><stop offset="1" stop-color="#f8d6f0"/></linearGradient><linearGradient id="stars-gradient-grad-2" x1="53.398" y1="1.599" x2="72.001" y2="35.992" gradientUnits="userSpaceOnUse"><stop stop-color="#fd00c5"/><stop offset="1" stop-color="#f8d6f0"/></linearGradient></defs>
  </symbol>
  <symbol id="services" viewBox="0 0 40 40">
    <path fill="currentColor" d="M35.85 20.183c-.303-5.46-3.457-10.293-7.99-12.933h4.006c.437 1.234 1.597 2.125 2.97 2.125 1.745 0 3.164-1.43 3.164-3.187C38 4.43 36.58 3 34.836 3c-1.373 0-2.533.89-2.97 2.125h-8.702V3h-6.328v2.125H8.134C7.697 3.891 6.537 3 5.164 3 3.42 3 2 4.43 2 6.188c0 1.757 1.42 3.187 3.164 3.187 1.373 0 2.533-.89 2.97-2.126h4.006C7.607 9.89 4.453 14.721 4.15 20.183A3.18 3.18 0 0 0 2 23.188c0 1.757 1.42 3.187 3.164 3.187s3.164-1.43 3.164-3.187a3.185 3.185 0 0 0-2.032-2.968c.375-6.042 4.732-11.144 10.54-12.54v1.695h6.328V7.68c5.808 1.396 10.165 6.498 10.54 12.54a3.185 3.185 0 0 0-2.032 2.968c0 1.757 1.42 3.187 3.164 3.187S38 24.945 38 23.188a3.18 3.18 0 0 0-2.15-3.005M12.621 32.75h14.766V37H12.62z"/><path fill="currentColor" d="m12.469 23.141 3.714 7.484h7.632l3.714-7.484-6.475-10.872V24.25h-2.11V12.27z"/>
  </symbol>
  <symbol id="screwdriver" viewBox="0 0 40 40">
    <path fill="currentColor" d="m20.434 38 .064-.184 2.02-5.722h13.484V38H20.433M19.493 38l-.065-.183-2.01-5.672H4V38h15.493M23.387 6.995h-6.79L17.552 2h4.883zM16.508 12.933h6.99v2.795h-6.99zM19.995 22.798c-1.887-1.365-2.04-5.027-2.02-6.121h4.04c.02 1.094-.133 4.756-2.02 6.121"/><path fill="currentColor" d="M19.18 28.755v-8.234c0-.22.086-.43.24-.586a.814.814 0 0 1 1.157 0c.154.156.24.367.24.586v8.233l-.819.83zM16.508 7.943h6.99v4.043h-6.99z"/>
  </symbol>
</svg>
