<svg xmlns="http://www.w3.org/2000/svg" width="227" height="200" fill="none" viewBox="0 0 227 200"><path fill="#fff" fill-opacity=".5" fill-rule="evenodd" d="M113.186 31.426c-.355-10.618.901-21.284 4.2-31.426h82.809c-8.881 2.166-14.974 4.996-19.019 7.799-7.101 4.92-10.178 11.25-9.814 22.133.416 12.439 5.638 28.762 15.218 47.065 9.35 17.865 21.668 35.379 33.534 49.571 8.429 10.081 9.197 24.515 1.878 35.315s-20.934 15.325-33.312 11.071c-16.424-5.643-43.779-13.555-71.38-18.611-24.776-4.539-45.548-5.936-58.766-4.007.648 4.376 2.337 10.871 5.754 19.566 3.776 9.606 8.857 19.936 14.475 30.098H13.916a247 247 0 0 1-3.744-8.985C4.365 176.236-.782 158.68.1 142.183c.462-8.66 2.667-18.656 8.862-27.739 6.482-9.503 15.79-15.734 26.328-18.875 26.737-7.969 62.629-4.162 92.001 1.22q2.331.426 4.655.876c-10.009-20.4-17.998-43.472-18.759-66.24M58.282 145.189q.001 0-.007.04z" clip-rule="evenodd"/></svg>