<svg xmlns="http://www.w3.org/2000/svg" width="329" height="321" fill="none" viewBox="0 0 329 321"><path fill="url(#a)" fill-rule="evenodd" d="M64.463 265.556c8.458 32.809 26.764 72.372 41.412 98.985l-52.563 28.932c-15.804-28.713-36.718-73.25-46.95-112.938-4.983-19.329-8.424-41.116-4.96-60.313C3.208 210.207 7.189 199.24 15.4 189.94c8.558-9.693 19.855-15.457 32.325-17.607 33.51-5.777 77.218 3.899 113.834 15.123a650 650 0 0 1 20.328 6.609q-1.215-3.046-2.372-6.109c-10.945-28.987-18.777-61.566-15.991-91.972 2.932-31.995 17.965-62.334 51.817-80.133C246.873-.728 290.334-3.977 345.589 4.585l-9.188 59.293c-50.182-7.776-78.327-2.707-93.138 5.08-12.49 6.567-18.536 16.642-19.989 32.501-1.599 17.448 2.881 40.163 12.373 65.303 9.313 24.665 22.516 49.214 35.636 69.361a30 30 0 0 1-38.111 43.422c-20.343-9.755-54.353-24.043-89.197-34.723-34.787-10.664-65.096-16.008-83.565-13.728-1.062 6.253-.258 17.74 4.053 34.462m-3.458-36.775" clip-rule="evenodd"/><defs><linearGradient id="a" x1="350.002" x2="8.939" y1="309.618" y2="300.049" gradientUnits="userSpaceOnUse"><stop stop-color="#fbe8ff"/><stop offset=".57" stop-color="#eee7ff"/><stop offset="1" stop-color="#d1e3ff"/></linearGradient></defs></svg>