<svg xmlns="http://www.w3.org/2000/svg" width="1073" height="360" fill="none" viewBox="0 0 1073 360"><path fill="url(#a)" fill-rule="evenodd" d="M616.396 288.491c8.111 60.447 32.081 133.824 52.04 183.184l-55.625 22.492c-20.858-51.584-46.826-130.208-55.882-197.696-4.457-33.217-5.371-67.428 3.085-95.013 4.351-14.197 11.679-28.273 23.852-39.136 12.565-11.212 28.226-17.142 45.602-18.043 52.916-2.743 121.56 20.678 181.875 47.35 27.181 12.02 53.802 25.226 78.132 38.178-6.714-19.155-12.72-38.894-17.618-58.725-12.451-50.419-18.412-104.105-8.406-150.98 10.338-48.438 38.179-90.403 91.612-110.829 50.987-19.489 120.627-17.473 211.677 7.987l-16.16 57.783c-86.11-24.077-140.76-22.469-174.093-9.725-30.888 11.808-47.402 34.718-54.358 67.308-7.29 34.151-3.487 77.645 7.978 124.071 11.344 45.933 29.535 92.142 48.428 130.437a30.001 30.001 0 0 1-42.994 38.593c-33.586-21.341-89.845-53.302-148.464-79.224-60.108-26.581-117.141-44.241-154.502-42.304-5.193.269-7.435 1.708-8.76 2.891-1.717 1.532-4.267 4.876-6.436 11.952-4.585 14.959-5.109 38.699-.983 69.449" clip-rule="evenodd"/><path fill="url(#b)" fill-rule="evenodd" d="M381.386 88.788c46.666 15.81 101.125 46.213 137.166 69.707L545 117.836c-37.664-24.552-95.974-57.355-148.076-75.007C371.28 34.14 344.3 28.11 321.12 30.543c-11.929 1.252-24.223 4.885-34.721 12.862-10.835 8.234-17.963 19.743-21.369 33.394-10.371 41.572-2.437 99.683 9.366 151.687 5.319 23.437 11.665 46.612 18.164 67.93-14.146-8.299-28.864-16.126-43.828-23.088-38.043-17.701-79.681-30.757-118.394-30.085-40.003.694-77.585 16.282-102.055 55.522C4.932 336.206-4.255 391.788 1.825 468l48.313-3.863c-5.75-72.074 3.99-115.196 19.258-139.678 14.146-22.684 34.867-32.237 61.782-32.704 28.204-.489 62.097 9.274 97.127 25.572 34.658 16.126 68.475 37.728 95.908 58.661a24.21 24.21 0 0 0 29.285.073c8.674-6.551 11.933-18.081 7.972-28.21-11.717-29.965-28.341-79.571-39.811-130.114-11.762-51.826-16.929-99.829-9.606-129.18 1.018-4.08 2.506-5.636 3.649-6.505 1.481-1.125 4.527-2.63 10.472-3.254 12.57-1.32 31.472 1.946 55.212 9.99" clip-rule="evenodd"/><defs><linearGradient id="a" x1="1114.52" x2="557.138" y1="415.4" y2="332.75" gradientUnits="userSpaceOnUse"><stop stop-color="#fae0ff"/><stop offset=".57" stop-color="#dccdff"/><stop offset="1" stop-color="#c1d9ff"/></linearGradient><linearGradient id="b" x1="-.187" x2="531.52" y1="119.451" y2="150.636" gradientUnits="userSpaceOnUse"><stop stop-color="#fbe8ff"/><stop offset=".57" stop-color="#eee7ff"/><stop offset="1" stop-color="#d1e3ff"/></linearGradient></defs></svg>