<svg xmlns="http://www.w3.org/2000/svg" width="192" height="229" fill="none" viewBox="0 0 192 229"><mask id="a" width="192" height="229" x="0" y="0" maskUnits="userSpaceOnUse" style="mask-type:alpha"><path fill="#f8f4fb" d="M0 20C0 8.954 8.954 0 20 0h152c11.046 0 20 8.954 20 20v189c0 11.046-8.954 20-20 20H20c-11.046 0-20-8.954-20-20z"/></mask><g stroke-linejoin="round" stroke-width="26.12" mask="url(#a)"><path stroke="url(#b)" d="M261.977 61.558c-29.82 24.955-92.42 67.578-104.262 38.435s-.479-92.02 6.681-119.816C118.927 24.237 26.391 80.409 20-47.395" opacity=".6"/><path stroke="url(#c)" d="M73.846 235.508c2.585-25.939 12.668-75.554 32.325-66.497 19.656 9.057 44.132 45.394 53.912 62.43 1.074-42.531 19.24-112.484 83.315-52.044" opacity=".6"/></g><defs><linearGradient id="b" x1="183.759" x2="216.809" y1="-84.407" y2="96.534" gradientUnits="userSpaceOnUse"><stop stop-color="#fae0ff"/><stop offset=".57" stop-color="#dccdff"/><stop offset="1" stop-color="#c1d9ff"/></linearGradient><linearGradient id="c" x1="181.485" x2="79.191" y1="272.265" y2="197.502" gradientUnits="userSpaceOnUse"><stop stop-color="#fae0ff"/><stop offset=".57" stop-color="#dccdff"/><stop offset="1" stop-color="#c1d9ff"/></linearGradient></defs></svg>