<svg xmlns="http://www.w3.org/2000/svg" width="207" height="190" fill="none" viewBox="0 0 207 190"><mask id="a" width="207" height="190" x="0" y="0" maskUnits="userSpaceOnUse" style="mask-type:alpha"><rect width="207" height="190" fill="#f8f4fb" rx="20"/></mask><g mask="url(#a)"><path fill="url(#b)" fill-rule="evenodd" d="M78.801 160.406c4.474 17.353 14.157 38.278 21.904 52.354l-27.801 15.302c-8.36-15.186-19.42-38.742-24.832-59.734-2.636-10.223-4.456-21.746-2.624-31.9.956-5.297 3.06-11.097 7.404-16.016 4.526-5.127 10.501-8.175 17.097-9.312 17.723-3.056 40.841 2.062 60.207 7.998a344 344 0 0 1 10.752 3.496 184 184 0 0 1-1.254-3.231c-5.789-15.332-9.931-32.563-8.458-48.645 1.55-16.923 9.501-32.969 27.406-42.383 16.678-8.769 39.665-10.487 68.889-5.959l-4.859 31.36c-26.542-4.112-41.428-1.43-49.261 2.688-6.606 3.473-9.804 8.802-10.573 17.19-.845 9.228 1.524 21.242 6.544 34.539 4.926 13.046 11.909 26.03 18.848 36.686a15.865 15.865 0 0 1-1.37 19.125 15.87 15.87 0 0 1-18.787 3.841c-10.759-5.16-28.748-12.717-47.177-18.366-18.399-5.64-34.43-8.466-44.198-7.26-.562 3.307-.137 9.383 2.143 18.227m-1.828-19.451-.006.012z" clip-rule="evenodd"/></g><defs><linearGradient id="b" x1="229.826" x2="49.435" y1="183.711" y2="178.65" gradientUnits="userSpaceOnUse"><stop stop-color="#fbe8ff"/><stop offset=".57" stop-color="#eee7ff"/><stop offset="1" stop-color="#d1e3ff"/></linearGradient></defs></svg>