<svg width="342" height="298" viewBox="0 0 342 298" fill="none" xmlns="http://www.w3.org/2000/svg">
<path fill-rule="evenodd" clip-rule="evenodd" d="M297.342 99.2323C301.213 128.085 312.655 163.109 322.182 186.67L295.631 197.406C285.675 172.784 273.279 135.255 268.957 103.041C266.829 87.1858 266.393 70.8562 270.429 57.689C272.506 50.9126 276.004 44.1938 281.815 39.0086C287.812 33.6568 295.287 30.8262 303.581 30.3962C328.84 29.0867 361.605 40.2659 390.395 52.9972C403.369 58.7346 416.076 65.0383 427.689 71.2207C424.484 62.0774 421.618 52.6557 419.28 43.1897C413.337 19.1236 410.491 -6.502 415.267 -28.8772C420.202 -51.9977 433.491 -72.0285 458.996 -81.7783C483.332 -91.0812 516.573 -90.1188 560.035 -77.9661L552.322 -50.3845C511.22 -61.8774 485.135 -61.1097 469.222 -55.0267C454.479 -49.3905 446.596 -38.4549 443.276 -22.8989C439.796 -6.59768 441.612 14.1633 447.084 36.3233C452.499 58.2485 461.182 80.3051 470.2 98.5841C473.04 104.342 471.701 111.287 466.924 115.576C462.146 119.865 455.097 120.449 449.678 117.006C433.646 106.819 406.792 91.5633 378.812 79.1899C350.121 66.5024 322.898 58.0727 305.064 58.9973C302.586 59.1258 301.516 59.8127 300.883 60.3773C300.063 61.1085 298.846 62.7049 297.811 66.0822C295.622 73.2224 295.372 84.5542 297.342 99.2323Z" fill="url(#paint0_linear_5467_7024)"/>
<path fill-rule="evenodd" clip-rule="evenodd" d="M198.741 196.602C223.058 204.832 251.437 220.658 270.218 232.888L284 211.723C264.373 198.942 233.988 181.867 206.837 172.678C193.474 168.155 179.415 165.016 167.336 166.283C161.12 166.935 154.713 168.826 149.243 172.978C143.596 177.264 139.882 183.255 138.108 190.361C132.703 212.001 136.838 242.251 142.988 269.322C145.76 281.521 149.067 293.585 152.453 304.683C145.082 300.362 137.412 296.288 129.615 292.664C109.79 283.45 88.0926 276.653 67.9191 277.003C47.0737 277.365 27.4896 285.479 14.738 305.905C2.57089 325.395 -2.21753 354.328 0.950842 394L26.127 391.989C23.1307 354.471 28.2064 332.024 36.1622 319.28C43.5337 307.472 54.3315 302.499 68.3568 302.256C83.054 302.001 100.716 307.083 118.97 315.567C137.031 323.962 154.652 335.207 168.948 346.103C173.451 349.536 179.688 349.551 184.208 346.141C188.728 342.731 190.426 336.729 188.362 331.457C182.257 315.859 173.594 290.036 167.617 263.726C161.487 236.748 158.795 211.76 162.611 196.481C163.142 194.358 163.917 193.548 164.513 193.096C165.284 192.51 166.872 191.727 169.97 191.402C176.52 190.715 186.37 192.415 198.741 196.602Z" fill="url(#paint1_linear_5467_7024)"/>
<defs>
<linearGradient id="paint0_linear_5467_7024" x1="535.107" y1="159.809" x2="269.056" y2="120.358" gradientUnits="userSpaceOnUse">
<stop stop-color="#FAE0FF"/>
<stop offset="0.570355" stop-color="#DCCDFF"/>
<stop offset="1" stop-color="#C1D9FF"/>
</linearGradient>
<linearGradient id="paint1_linear_5467_7024" x1="-0.0975137" y1="212.563" x2="276.974" y2="228.831" gradientUnits="userSpaceOnUse">
<stop stop-color="#FBE8FF"/>
<stop offset="0.570355" stop-color="#EEE7FF"/>
<stop offset="1" stop-color="#D1E3FF"/>
</linearGradient>
</defs>
</svg>
